<svg id="Capa_1" enable-background="new 0 0 512 512" height="512" viewBox="0 0 512 512" width="512" xmlns="http://www.w3.org/2000/svg"><path d="m241 314.781h30v128.43h-30z" fill="#07485e"/><path d="m256 361.928-10.008 15.429 10.008 14.571h176.929v49.644h30v-79.644z" fill="#07485e"/><path d="m49.071 361.928v79.644h30v-49.644h176.929v-30z" fill="#09607d"/><path d="m0 421.952h128.143v90.048h-128.143z" fill="#ffb99d"/><path d="m383.857 421.952h128.143v90.048h-128.143z" fill="#ff6c6c"/><path d="m320.072 512v-90.048h-64.072l-20.016 48.147 20.016 41.901z" fill="#ff6c6c"/><path d="m191.928 421.952h64.072v90.048h-64.072z" fill="#ffb99d"/><path d="m400.089 0h-144.089l-20.016 166.771 20.016 165.133h144.089z" fill="#efe2dd"/><path d="m111.911 0h144.089v331.904h-144.089z" fill="#fff5f5"/><g fill="#07485e"><path d="m352.25 55.274h-96.25l-10.008 15 10.008 15h96.25z"/><path d="m352.25 119.059h-96.25l-10.008 15 10.008 15h96.25z"/><path d="m352.25 182.845h-96.25l-10.008 15 10.008 15h96.25z"/><path d="m352.25 246.63h-96.25l-10.008 15 10.008 15h96.25z"/></g><path d="m159.75 55.274h96.25v30h-96.25z" fill="#09607d"/><path d="m159.75 119.059h96.25v30h-96.25z" fill="#09607d"/><path d="m159.75 182.845h96.25v30h-96.25z" fill="#09607d"/><path d="m159.75 246.63h96.25v30h-96.25z" fill="#09607d"/><path d="m286 451.976h-30l-10.008 15 10.008 15h30z" fill="#e1ebf0"/><path d="m225.976 451.976h30v30h-30z" fill="#fff5f5"/><path d="m34.06 451.976h60.024v30h-60.024z" fill="#fff5f5"/><path d="m417.916 451.976h60.024v30h-60.024z" fill="#e1ebf0"/></svg>